# xmcd CD database file
#
# Track frame offsets:
#	150
#	18957
#	37801
#	56721
#
# Disc length: 1004 seconds
#
# Revision: 1
# Processed by: cddbd v1.5.2PL0 Copyright (c) Steve Scherf et al.
# Submitted via: CDex 1.51
#
DISCID=2603ea04
DTITLE=Celine Dion ×Yuna Ito - A World to Believe in -あなたがいる限り-
DYEAR=2008
DGENRE=JPop
TTITLE0=あなたがいる限り -A World to Believe in-
TTITLE1=あなたがいる限り -A World to Believe in-(USA Mix)
TTITLE2=あなたがいる限り -A World to Believe in-(YunaIto SoloVer.)
TTITLE3=あなたがいる限り -A World to Believe in-(Instrumental)
EXTD=YEAR: 2008
EXTT0=
EXTT1=
EXTT2=
EXTT3=
PLAYORDER=
